<svg viewBox="0 0 520 242" xmlns="http://www.w3.org/2000/svg" width="520" height="242">
  <defs>
    <radialGradient id="zgRad" cx="200" cy="115" r="105" gradientUnits="userSpaceOnUse">
      <stop offset="0" stop-color="#2c6fb0"/><stop offset="0.5" stop-color="#7fa9c9"/><stop offset="1" stop-color="#f6c453"/>
    </radialGradient>
    <linearGradient id="zgLin" x1="0" y1="0" x2="1" y2="0"><stop offset="0" stop-color="#f6c453"/><stop offset="1" stop-color="#2c6fb0"/></linearGradient>
    <marker id="ah" markerWidth="7" markerHeight="7" refX="5" refY="3" orient="auto"><path d="M0,0 L6,3 L0,6 Z" fill="#16545c"/></marker>
  </defs>
  <polygon points="150,20 250,20 300,115 250,210 150,210 100,115" fill="#f6c453" opacity="0.6" stroke="#16545c" stroke-width="1.5"/>
  <polygon points="164,47 236,47 272,115 236,183 164,183 128,115" fill="#b3a872" opacity="0.65"/>
  <polygon points="176,69 224,69 248,115 224,161 176,161 152,115" fill="#7f93a8" opacity="0.7"/>
  <polygon points="188,92 212,92 224,115 212,138 188,138 176,115" fill="#2c6fb0" opacity="0.75"/>
  <circle cx="150" cy="20" r="6" fill="#f6c453" stroke="#7a5a10"/><circle cx="250" cy="20" r="6" fill="#f6c453" stroke="#7a5a10"/>
  <circle cx="100" cy="115" r="6" fill="#f6c453" stroke="#7a5a10"/><circle cx="300" cy="115" r="6" fill="#f6c453" stroke="#7a5a10"/>
  <circle cx="150" cy="210" r="6" fill="#f6c453" stroke="#7a5a10"/><circle cx="250" cy="210" r="6" fill="#f6c453" stroke="#7a5a10"/>
  <circle cx="200" cy="115" r="12" fill="#2c6fb0" stroke="#16374f" stroke-width="1.5"/>
  <text x="200" y="119" font-size="8" text-anchor="middle" fill="#fff" font-family="Arial">CV</text>
  <line x1="150" y1="20" x2="190" y2="106" stroke="#16545c" stroke-width="1" marker-end="url(#ah)"/>
  <line x1="300" y1="115" x2="216" y2="115" stroke="#16545c" stroke-width="1" marker-end="url(#ah)"/>
  <line x1="150" y1="210" x2="190" y2="124" stroke="#16545c" stroke-width="1" marker-end="url(#ah)"/>
  <text x="360" y="35" font-size="9" fill="#3a4654" font-family="Arial">PORTAL</text><text x="470" y="35" font-size="9" fill="#3a4654" font-family="Arial">CENTRAL</text>
  <rect x="360" y="42" width="140" height="16" fill="url(#zgLin)"/>
  <text x="360" y="80" font-size="8.5" fill="#7a5a10" font-family="Arial">ASS1, ALDOB, PCK1</text>
  <text x="360" y="94" font-size="8.5" fill="#7a5a10" font-family="Arial">(urea, gluconeogenesis)</text>
  <text x="360" y="120" font-size="8.5" fill="#2c6fb0" font-family="Arial">GLUL, CYP2E1, CYP2C8</text>
  <text x="360" y="134" font-size="8.5" fill="#2c6fb0" font-family="Arial">(xenobiotics, glutamine)</text>
  <text x="118" y="148" font-size="8" fill="#16545c" font-family="Arial">blood flow &rarr; centre</text>
  <text x="90" y="236" font-size="9" fill="#7a5a10" font-family="Arial">Periportal at the corners; pericentral at the central vein</text>
</svg>