<svg viewBox="0 0 540 288" xmlns="http://www.w3.org/2000/svg" width="540" height="288">
  <!-- ridges drawn back(top, end-stage)->front(bottom, healthy); each is ONE unimodal hump that NARROWS with disease -->
  <path d="M70.0,70.0 L74.5,70.0 L79.0,70.0 L83.5,70.0 L88.0,70.0 L92.5,70.0 L97.0,70.0 L101.5,70.0 L106.0,70.0 L110.4,70.0 L114.9,70.0 L119.4,70.0 L123.9,70.0 L128.4,70.0 L132.9,70.0 L137.4,70.0 L141.9,70.0 L146.4,70.0 L150.9,70.0 L155.4,70.0 L159.9,70.0 L164.4,70.0 L168.9,70.0 L173.4,69.9 L177.9,69.9 L182.4,69.8 L186.9,69.6 L191.3,69.4 L195.8,69.0 L200.3,68.4 L204.8,67.5 L209.3,66.3 L213.8,64.6 L218.3,62.3 L222.8,59.5 L227.3,56.0 L231.8,51.9 L236.3,47.4 L240.8,42.5 L245.3,37.7 L249.8,33.1 L254.3,29.2 L258.8,26.2 L263.3,24.4 L267.8,24.0 L272.2,25.0 L276.7,27.3 L281.2,30.7 L285.7,35.0 L290.2,39.7 L294.7,44.6 L299.2,49.3 L303.7,53.7 L308.2,57.6 L312.7,60.8 L317.2,63.4 L321.7,65.4 L326.2,66.9 L330.7,68.0 L335.2,68.7 L339.7,69.2 L344.2,69.5 L348.7,69.7 L353.1,69.8 L357.6,69.9 L362.1,70.0 L366.6,70.0 L371.1,70.0 L375.6,70.0 L380.1,70.0 L384.6,70.0 L389.1,70.0 L393.6,70.0 L398.1,70.0 L402.6,70.0 L407.1,70.0 L411.6,70.0 L416.1,70.0 L420.6,70.0 L425.1,70.0 L429.6,70.0 L434.0,70.0 L438.5,70.0 L443.0,70.0 L447.5,70.0 L452.0,70.0 L456.5,70.0 L461.0,70.0 L465.5,70.0 L470.0,70.0 L470,70 L70,70 Z" fill="#f6c9b4" fill-opacity="0.9" stroke="#16545c" stroke-width="1.3"/>
  <path d="M70.0,115.0 L74.5,115.0 L79.0,115.0 L83.5,115.0 L88.0,115.0 L92.5,115.0 L97.0,115.0 L101.5,115.0 L106.0,115.0 L110.4,115.0 L114.9,115.0 L119.4,115.0 L123.9,115.0 L128.4,115.0 L132.9,115.0 L137.4,114.9 L141.9,114.9 L146.4,114.8 L150.9,114.8 L155.4,114.6 L159.9,114.5 L164.4,114.2 L168.9,113.9 L173.4,113.5 L177.9,112.9 L182.4,112.2 L186.9,111.3 L191.3,110.1 L195.8,108.7 L200.3,107.0 L204.8,104.9 L209.3,102.6 L213.8,99.9 L218.3,97.0 L222.8,93.8 L227.3,90.4 L231.8,86.9 L236.3,83.5 L240.8,80.1 L245.3,77.0 L249.8,74.3 L254.3,72.0 L258.8,70.4 L263.3,69.3 L267.8,69.0 L272.2,69.4 L276.7,70.5 L281.2,72.2 L285.7,74.5 L290.2,77.2 L294.7,80.4 L299.2,83.7 L303.7,87.2 L308.2,90.6 L312.7,94.0 L317.2,97.2 L321.7,100.1 L326.2,102.8 L330.7,105.1 L335.2,107.1 L339.7,108.8 L344.2,110.2 L348.7,111.4 L353.1,112.3 L357.6,113.0 L362.1,113.5 L366.6,114.0 L371.1,114.3 L375.6,114.5 L380.1,114.7 L384.6,114.8 L389.1,114.8 L393.6,114.9 L398.1,114.9 L402.6,115.0 L407.1,115.0 L411.6,115.0 L416.1,115.0 L420.6,115.0 L425.1,115.0 L429.6,115.0 L434.0,115.0 L438.5,115.0 L443.0,115.0 L447.5,115.0 L452.0,115.0 L456.5,115.0 L461.0,115.0 L465.5,115.0 L470.0,115.0 L470,115 L70,115 Z" fill="#fbe0cf" fill-opacity="0.9" stroke="#16545c" stroke-width="1.3"/>
  <path d="M70.0,160.0 L74.5,160.0 L79.0,160.0 L83.5,160.0 L88.0,159.9 L92.5,159.9 L97.0,159.9 L101.5,159.8 L106.0,159.8 L110.4,159.7 L114.9,159.6 L119.4,159.5 L123.9,159.3 L128.4,159.1 L132.9,158.9 L137.4,158.6 L141.9,158.2 L146.4,157.8 L150.9,157.2 L155.4,156.6 L159.9,155.8 L164.4,154.9 L168.9,153.9 L173.4,152.7 L177.9,151.3 L182.4,149.8 L186.9,148.1 L191.3,146.2 L195.8,144.2 L200.3,142.1 L204.8,139.8 L209.3,137.4 L213.8,134.9 L218.3,132.4 L222.8,129.8 L227.3,127.4 L231.8,125.0 L236.3,122.7 L240.8,120.6 L245.3,118.7 L249.8,117.1 L254.3,115.8 L258.8,114.9 L263.3,114.2 L267.8,114.0 L272.2,114.1 L276.7,114.6 L281.2,115.5 L285.7,116.7 L290.2,118.2 L294.7,120.0 L299.2,122.1 L303.7,124.3 L308.2,126.7 L312.7,129.1 L317.2,131.6 L321.7,134.2 L326.2,136.7 L330.7,139.1 L335.2,141.4 L339.7,143.6 L344.2,145.7 L348.7,147.6 L353.1,149.3 L357.6,150.9 L362.1,152.3 L366.6,153.5 L371.1,154.6 L375.6,155.6 L380.1,156.4 L384.6,157.0 L389.1,157.6 L393.6,158.1 L398.1,158.5 L402.6,158.8 L407.1,159.1 L411.6,159.3 L416.1,159.5 L420.6,159.6 L425.1,159.7 L429.6,159.8 L434.0,159.8 L438.5,159.9 L443.0,159.9 L447.5,159.9 L452.0,160.0 L456.5,160.0 L461.0,160.0 L465.5,160.0 L470.0,160.0 L470,160 L70,160 Z" fill="#ead9cf" fill-opacity="0.9" stroke="#16545c" stroke-width="1.3"/>
  <path d="M70.0,204.7 L74.5,204.6 L79.0,204.5 L83.5,204.3 L88.0,204.2 L92.5,204.0 L97.0,203.8 L101.5,203.6 L106.0,203.3 L110.4,202.9 L114.9,202.6 L119.4,202.1 L123.9,201.6 L128.4,201.0 L132.9,200.4 L137.4,199.6 L141.9,198.8 L146.4,197.9 L150.9,196.9 L155.4,195.7 L159.9,194.5 L164.4,193.2 L168.9,191.8 L173.4,190.3 L177.9,188.7 L182.4,187.0 L186.9,185.2 L191.3,183.4 L195.8,181.5 L200.3,179.5 L204.8,177.6 L209.3,175.6 L213.8,173.7 L218.3,171.8 L222.8,169.9 L227.3,168.2 L231.8,166.5 L236.3,164.9 L240.8,163.5 L245.3,162.3 L249.8,161.2 L254.3,160.3 L258.8,159.7 L263.3,159.2 L267.8,159.0 L272.2,159.0 L276.7,159.2 L281.2,159.7 L285.7,160.3 L290.2,161.2 L294.7,162.3 L299.2,163.5 L303.7,164.9 L308.2,166.5 L312.7,168.2 L317.2,169.9 L321.7,171.8 L326.2,173.7 L330.7,175.6 L335.2,177.6 L339.7,179.5 L344.2,181.5 L348.7,183.4 L353.1,185.2 L357.6,187.0 L362.1,188.7 L366.6,190.3 L371.1,191.8 L375.6,193.2 L380.1,194.5 L384.6,195.7 L389.1,196.9 L393.6,197.9 L398.1,198.8 L402.6,199.6 L407.1,200.4 L411.6,201.0 L416.1,201.6 L420.6,202.1 L425.1,202.6 L429.6,202.9 L434.0,203.3 L438.5,203.6 L443.0,203.8 L447.5,204.0 L452.0,204.2 L456.5,204.3 L461.0,204.5 L465.5,204.6 L470.0,204.7 L470,205 L70,205 Z" fill="#bfdde1" fill-opacity="0.9" stroke="#16545c" stroke-width="1.3"/>
  <path d="M70.0,248.6 L74.5,248.4 L79.0,248.1 L83.5,247.9 L88.0,247.5 L92.5,247.1 L97.0,246.7 L101.5,246.2 L106.0,245.7 L110.4,245.1 L114.9,244.5 L119.4,243.8 L123.9,243.0 L128.4,242.2 L132.9,241.3 L137.4,240.3 L141.9,239.3 L146.4,238.2 L150.9,237.0 L155.4,235.7 L159.9,234.4 L164.4,233.0 L168.9,231.5 L173.4,230.0 L177.9,228.5 L182.4,226.9 L186.9,225.3 L191.3,223.7 L195.8,222.0 L200.3,220.4 L204.8,218.7 L209.3,217.1 L213.8,215.5 L218.3,214.0 L222.8,212.6 L227.3,211.2 L231.8,209.9 L236.3,208.7 L240.8,207.6 L245.3,206.7 L249.8,205.9 L254.3,205.2 L258.8,204.6 L263.3,204.3 L267.8,204.1 L272.2,204.0 L276.7,204.1 L281.2,204.4 L285.7,204.8 L290.2,205.4 L294.7,206.1 L299.2,206.9 L303.7,207.9 L308.2,209.0 L312.7,210.3 L317.2,211.6 L321.7,213.0 L326.2,214.5 L330.7,216.0 L335.2,217.6 L339.7,219.2 L344.2,220.8 L348.7,222.5 L353.1,224.1 L357.6,225.8 L362.1,227.4 L366.6,228.9 L371.1,230.5 L375.6,232.0 L380.1,233.4 L384.6,234.8 L389.1,236.1 L393.6,237.3 L398.1,238.5 L402.6,239.6 L407.1,240.6 L411.6,241.6 L416.1,242.4 L420.6,243.3 L425.1,244.0 L429.6,244.7 L434.0,245.3 L438.5,245.9 L443.0,246.4 L447.5,246.8 L452.0,247.3 L456.5,247.6 L461.0,247.9 L465.5,248.2 L470.0,248.5 L470,250 L70,250 Z" fill="#cfe6e9" fill-opacity="0.9" stroke="#16545c" stroke-width="1.3"/>
  <!-- stage labels -->
  <g font-family="Arial" font-size="9" fill="#33404a" text-anchor="end">
    <text x="64" y="240">Healthy</text><text x="64" y="196">NAFLD</text><text x="64" y="151">NASH</text>
    <text x="64" y="106">Cirrhosis</text><text x="64" y="61">End-stage</text>
  </g>
  <!-- axis -->
  <line x1="70" y1="258" x2="470" y2="258" stroke="#9fb0b6" stroke-width="1"/>
  <g font-family="Arial" font-size="8.5" fill="#5a6472" text-anchor="middle">
    <text x="70" y="272">periportal</text><text x="270" y="272">middle (de-zonated)</text><text x="470" y="272">pericentral</text>
  </g>
  <text x="270" y="20" font-family="Arial" font-size="9.5" fill="#16545c" text-anchor="middle" font-weight="700">distribution of the pseudo-zonal coordinate, by stage</text>
</svg>