<svg viewBox="0 0 470 296" xmlns="http://www.w3.org/2000/svg" width="470" height="296">
  <!-- axes -->
  <line x1="70" y1="30" x2="70" y2="250" stroke="#9fb0b6" stroke-width="1.2"/>
  <line x1="70" y1="250" x2="332" y2="250" stroke="#9fb0b6" stroke-width="1.2"/>
  <text x="200" y="278" font-family="Arial" font-size="9.5" fill="#33404a" text-anchor="middle">pericentral signature score &rarr;</text>
  <text x="22" y="140" font-family="Arial" font-size="9.5" fill="#33404a" text-anchor="middle" transform="rotate(-90 22 140)">periportal signature score &rarr;</text>
  <!-- anticorrelation guide -->
  <line x1="78" y1="62" x2="318" y2="244" stroke="#b9c6cc" stroke-width="1.3" stroke-dasharray="5,4"/>
  <!-- coordinate axis arrow (PC - PP) -->
  <line x1="100" y1="80" x2="300" y2="232" stroke="#0e3a40" stroke-width="2" marker-end="url(#a5)"/>
  <defs><marker id="a5" markerWidth="9" markerHeight="9" refX="6" refY="3" orient="auto"><path d="M0,0 L6,3 L0,6 Z" fill="#0e3a40"/></marker></defs>
  <text x="300" y="226" font-family="Arial" font-size="8.5" fill="#0e3a40" text-anchor="end">coord = PC &minus; PP</text>
  <!-- points -->
  <circle cx="313.0" cy="250.0" r="3" fill="#c0651f" fill-opacity="0.8"/><circle cx="260.2" cy="250.0" r="3" fill="#c0651f" fill-opacity="0.8"/><circle cx="248.5" cy="219.5" r="3" fill="#c0651f" fill-opacity="0.8"/><circle cx="254.6" cy="228.9" r="3" fill="#c0651f" fill-opacity="0.8"/><circle cx="255.8" cy="227.6" r="3" fill="#c0651f" fill-opacity="0.8"/><circle cx="216.2" cy="173.1" r="3" fill="#c0651f" fill-opacity="0.8"/><circle cx="284.7" cy="218.3" r="3" fill="#c0651f" fill-opacity="0.8"/><circle cx="258.8" cy="229.0" r="3" fill="#c0651f" fill-opacity="0.8"/><circle cx="240.2" cy="230.8" r="3" fill="#c0651f" fill-opacity="0.8"/><circle cx="287.8" cy="250.0" r="3" fill="#c0651f" fill-opacity="0.8"/><circle cx="220.2" cy="193.3" r="3" fill="#c0651f" fill-opacity="0.8"/><circle cx="303.6" cy="250.0" r="3" fill="#c0651f" fill-opacity="0.8"/><circle cx="225.3" cy="205.4" r="3" fill="#c0651f" fill-opacity="0.8"/><circle cx="276.7" cy="240.4" r="3" fill="#c0651f" fill-opacity="0.8"/><circle cx="233.2" cy="204.6" r="3" fill="#c0651f" fill-opacity="0.8"/><circle cx="280.4" cy="210.6" r="3" fill="#c0651f" fill-opacity="0.8"/><circle cx="218.4" cy="198.2" r="3" fill="#c0651f" fill-opacity="0.8"/><circle cx="232.1" cy="237.4" r="3" fill="#c0651f" fill-opacity="0.8"/><circle cx="228.4" cy="212.8" r="3" fill="#c0651f" fill-opacity="0.8"/><circle cx="292.3" cy="250.0" r="3" fill="#c0651f" fill-opacity="0.8"/><circle cx="206.6" cy="168.6" r="3" fill="#c0651f" fill-opacity="0.8"/><circle cx="246.1" cy="238.8" r="3" fill="#c0651f" fill-opacity="0.8"/><circle cx="238.6" cy="214.7" r="3" fill="#c0651f" fill-opacity="0.8"/><circle cx="229.9" cy="197.9" r="3" fill="#c0651f" fill-opacity="0.8"/><circle cx="187.1" cy="166.2" r="3" fill="#c0651f" fill-opacity="0.8"/><circle cx="288.8" cy="235.0" r="3" fill="#c0651f" fill-opacity="0.8"/><circle cx="291.8" cy="233.4" r="3" fill="#c0651f" fill-opacity="0.8"/><circle cx="283.6" cy="250.0" r="3" fill="#c0651f" fill-opacity="0.8"/><circle cx="238.4" cy="235.0" r="3" fill="#c0651f" fill-opacity="0.8"/><circle cx="289.9" cy="228.5" r="3" fill="#c0651f" fill-opacity="0.8"/><circle cx="251.0" cy="188.9" r="3" fill="#c0651f" fill-opacity="0.8"/><circle cx="236.1" cy="201.3" r="3" fill="#c0651f" fill-opacity="0.8"/><circle cx="262.0" cy="241.8" r="3" fill="#c0651f" fill-opacity="0.8"/><circle cx="270.9" cy="203.1" r="3" fill="#c0651f" fill-opacity="0.8"/><circle cx="225.2" cy="180.5" r="3" fill="#c0651f" fill-opacity="0.8"/><circle cx="252.4" cy="190.1" r="3" fill="#c0651f" fill-opacity="0.8"/><circle cx="272.3" cy="223.8" r="3" fill="#c0651f" fill-opacity="0.8"/>
  <circle cx="172.7" cy="128.4" r="3" fill="#2f7fbf" fill-opacity="0.8"/><circle cx="150.9" cy="127.8" r="3" fill="#2f7fbf" fill-opacity="0.8"/><circle cx="120.5" cy="87.8" r="3" fill="#2f7fbf" fill-opacity="0.8"/><circle cx="88.4" cy="92.2" r="3" fill="#2f7fbf" fill-opacity="0.8"/><circle cx="177.1" cy="168.6" r="3" fill="#2f7fbf" fill-opacity="0.8"/><circle cx="112.8" cy="107.2" r="3" fill="#2f7fbf" fill-opacity="0.8"/><circle cx="140.6" cy="116.9" r="3" fill="#2f7fbf" fill-opacity="0.8"/><circle cx="119.7" cy="106.8" r="3" fill="#2f7fbf" fill-opacity="0.8"/><circle cx="152.4" cy="99.5" r="3" fill="#2f7fbf" fill-opacity="0.8"/><circle cx="116.6" cy="93.7" r="3" fill="#2f7fbf" fill-opacity="0.8"/><circle cx="107.1" cy="105.6" r="3" fill="#2f7fbf" fill-opacity="0.8"/><circle cx="89.4" cy="74.6" r="3" fill="#2f7fbf" fill-opacity="0.8"/><circle cx="116.5" cy="105.2" r="3" fill="#2f7fbf" fill-opacity="0.8"/><circle cx="130.0" cy="102.6" r="3" fill="#2f7fbf" fill-opacity="0.8"/><circle cx="134.2" cy="109.8" r="3" fill="#2f7fbf" fill-opacity="0.8"/><circle cx="86.1" cy="69.1" r="3" fill="#2f7fbf" fill-opacity="0.8"/><circle cx="154.3" cy="113.6" r="3" fill="#2f7fbf" fill-opacity="0.8"/><circle cx="132.7" cy="109.5" r="3" fill="#2f7fbf" fill-opacity="0.8"/><circle cx="95.6" cy="111.5" r="3" fill="#2f7fbf" fill-opacity="0.8"/><circle cx="102.0" cy="85.6" r="3" fill="#2f7fbf" fill-opacity="0.8"/><circle cx="111.2" cy="93.6" r="3" fill="#2f7fbf" fill-opacity="0.8"/><circle cx="110.6" cy="108.7" r="3" fill="#2f7fbf" fill-opacity="0.8"/><circle cx="143.8" cy="96.0" r="3" fill="#2f7fbf" fill-opacity="0.8"/><circle cx="77.7" cy="76.8" r="3" fill="#2f7fbf" fill-opacity="0.8"/><circle cx="133.7" cy="103.7" r="3" fill="#2f7fbf" fill-opacity="0.8"/><circle cx="89.7" cy="105.5" r="3" fill="#2f7fbf" fill-opacity="0.8"/><circle cx="133.7" cy="115.5" r="3" fill="#2f7fbf" fill-opacity="0.8"/><circle cx="122.4" cy="88.2" r="3" fill="#2f7fbf" fill-opacity="0.8"/><circle cx="139.5" cy="110.5" r="3" fill="#2f7fbf" fill-opacity="0.8"/><circle cx="87.8" cy="80.4" r="3" fill="#2f7fbf" fill-opacity="0.8"/><circle cx="86.7" cy="69.5" r="3" fill="#2f7fbf" fill-opacity="0.8"/><circle cx="150.2" cy="114.4" r="3" fill="#2f7fbf" fill-opacity="0.8"/>
  <circle cx="161.6" cy="150.0" r="3" fill="#8a8f96" fill-opacity="0.85"/><circle cx="187.1" cy="143.5" r="3" fill="#8a8f96" fill-opacity="0.85"/><circle cx="171.9" cy="151.6" r="3" fill="#8a8f96" fill-opacity="0.85"/><circle cx="184.1" cy="133.5" r="3" fill="#8a8f96" fill-opacity="0.85"/><circle cx="170.4" cy="149.7" r="3" fill="#8a8f96" fill-opacity="0.85"/><circle cx="181.6" cy="173.8" r="3" fill="#8a8f96" fill-opacity="0.85"/><circle cx="156.1" cy="126.2" r="3" fill="#8a8f96" fill-opacity="0.85"/><circle cx="164.7" cy="144.5" r="3" fill="#8a8f96" fill-opacity="0.85"/>
  <!-- legend -->
  <g font-family="Arial" font-size="8.5">
    <circle cx="350" cy="60" r="3.5" fill="#c0651f"/><text x="358" y="63" fill="#33404a">pericentral-like</text>
    <circle cx="350" cy="78" r="3.5" fill="#2f7fbf"/><text x="358" y="81" fill="#33404a">periportal-like</text>
    <circle cx="350" cy="96" r="3.5" fill="#8a8f96"/><text x="358" y="99" fill="#33404a">de-zonated (middle)</text>
  </g>
</svg>